<svg width="41" height="39" viewBox="0 0 41 39" fill="none" xmlns="http://www.w3.org/2000/svg">
<g clip-path="url(#clip0_601_329)">
<path d="M40.94 6.00728C39.8822 7.54596 38.6035 8.88816 37.1532 9.98204C37.1532 10.384 37.1532 10.7859 37.1532 11.2102C37.1648 18.5093 34.4909 25.5083 29.7311 30.638C24.971 35.7678 18.523 38.5992 11.8328 38.4973C7.96504 38.5115 4.14676 37.5486 0.67713 35.6838C0.490034 35.5947 0.369379 35.393 0.370085 35.1702V34.9246C0.370085 34.604 0.608364 34.3442 0.902289 34.3442C4.70424 34.2073 8.37055 32.77 11.3825 30.2354C7.94122 30.1597 4.84494 27.9368 3.41999 24.5188C3.34803 24.3323 3.37042 24.1179 3.47914 23.9537C3.58783 23.7896 3.76712 23.6992 3.95219 23.7151C4.99808 23.8296 6.05442 23.7235 7.06352 23.4024C3.26462 22.5425 0.410152 19.1036 0.00163216 14.8946C-0.0128773 14.6927 0.070102 14.4972 0.220618 14.3785C0.37111 14.26 0.567387 14.2354 0.738539 14.3141C1.75798 14.8047 2.85849 15.063 3.97267 15.0732C0.64392 12.691 -0.793882 8.15975 0.472426 4.04226C0.603148 3.64216 0.917185 3.34658 1.29915 3.26417C1.68108 3.18174 2.07464 3.32463 2.33513 3.64033C6.82706 8.85319 12.999 11.9595 19.5496 12.3043C19.382 11.5743 19.2995 10.824 19.3041 10.0714C19.3653 6.12481 21.6049 2.60916 24.9741 1.17027C28.3432 -0.268591 32.1753 0.654067 34.6766 3.50633C36.3813 3.15219 38.0295 2.52779 39.5686 1.65295C39.6813 1.5762 39.8244 1.5762 39.9371 1.65295C40.0075 1.77594 40.0075 1.93189 39.9371 2.05488C39.1916 3.91634 37.9322 5.47757 36.3346 6.52088C37.7336 6.34397 39.108 5.98411 40.4284 5.44905C40.5396 5.36655 40.6856 5.36655 40.7967 5.44905C40.8899 5.4955 40.9596 5.58434 40.9872 5.69191C41.0147 5.79947 40.9974 5.91484 40.94 6.00728Z" fill="#F4F4F4"/>
</g>
<defs>
<clipPath id="clip0_601_329">
<rect width="41" height="38" fill="white" transform="translate(0 0.5)"/>
</clipPath>
</defs>
</svg>
