<svg width="41" height="41" viewBox="0 0 41 41" fill="none" xmlns="http://www.w3.org/2000/svg">
<g clip-path="url(#clip0_601_332)">
<g clip-path="url(#clip1_601_332)">
<path d="M20.5 0C9.17814 0 0 9.17814 0 20.5C0 31.8219 9.17814 41 20.5 41C31.8219 41 41 31.8219 41 20.5C41 9.17814 31.8219 0 20.5 0ZM2.62743 21.7813H7.0238C7.12162 23.9085 7.44309 25.8548 7.94237 27.6026H4.03574C3.25348 25.7964 2.77361 23.8351 2.62743 21.7813ZM26.824 19.2188C26.7276 17.1593 26.4835 15.2086 26.153 13.3975H30.3527C30.9117 15.1164 31.2955 17.0548 31.4112 19.2188H26.824ZM17.2685 27.6026C16.9069 25.6059 16.7294 23.6569 16.6965 21.7813H24.3035C24.2707 23.6569 24.0932 25.6059 23.7315 27.6026H17.2685ZM23.1732 30.1651C22.5724 32.4714 21.7028 34.8224 20.4997 37.1785C19.2969 34.8224 18.4274 32.4714 17.8267 30.1651H23.1732ZM16.7314 19.2188C16.8329 17.1475 17.0948 15.1958 17.4426 13.3975H23.5574C23.9053 15.1958 24.1671 17.1475 24.2687 19.2188H16.7314ZM18.0184 10.835C18.8192 7.70909 19.8085 5.24273 20.4998 3.72422C21.1912 5.24273 22.1807 7.70909 22.9816 10.835H18.0184ZM25.6099 10.835C24.7924 7.44736 23.7428 4.72605 22.9636 2.96723C23.9319 3.65628 27.1491 6.20313 29.3437 10.835H25.6099ZM18.0361 2.96706C17.2569 4.72588 16.2074 7.44727 15.39 10.835H11.6558C13.8506 6.20271 17.068 3.65586 18.0361 2.96706ZM14.847 13.3975C14.5165 15.2087 14.2724 17.1594 14.176 19.2189H9.58839C9.70411 17.055 10.0878 15.1165 10.6469 13.3975H14.847ZM7.02656 19.2188H2.62743C2.77361 17.165 3.25339 15.2038 4.03566 13.3975H7.96011C7.45715 15.1451 7.12931 17.09 7.02656 19.2188ZM9.58706 21.7813H14.1409C14.17 23.6601 14.3281 25.6065 14.6631 27.6026H10.6482C10.0844 25.8792 9.69943 23.9402 9.58706 21.7813ZM15.1938 30.1651C15.8223 32.7743 16.7559 35.4411 18.1009 38.1185C17.1933 37.4687 13.894 34.8735 11.657 30.1651H15.1938ZM22.896 38.1243C24.2426 35.4449 25.1771 32.7762 25.8062 30.1651H29.3686C27.1383 34.8975 23.8249 37.4712 22.896 38.1243ZM26.337 27.6026C26.6721 25.6065 26.8301 23.6601 26.8592 21.7813H31.4139C31.3037 23.9442 30.9249 25.8826 30.3694 27.6026H26.337ZM33.9757 21.7813H38.3726C38.2263 23.8351 37.7465 25.7964 36.9643 27.6026H33.0572C33.5565 25.8548 33.8779 23.9085 33.9757 21.7813ZM33.973 19.2188C33.8703 17.0899 33.5424 15.1451 33.0395 13.3975H36.9644C37.7468 15.2037 38.2265 17.1649 38.3727 19.2188H33.973ZM35.5871 10.835H32.1362C30.9908 8.076 29.4976 5.89346 28.0924 4.27203C31.1663 5.71624 33.7638 7.99885 35.5871 10.835ZM12.9068 4.27237C11.5018 5.89379 10.0087 8.07625 8.86336 10.835H5.41292C7.23608 7.99902 9.83331 5.71666 12.9068 4.27237ZM5.413 30.1651H8.84253C9.97061 32.896 11.4428 35.0712 12.8381 36.6945C9.79473 35.2485 7.22253 32.9797 5.413 30.1651ZM28.1625 36.6942C29.5575 35.0711 31.0294 32.8958 32.1572 30.1651H35.587C33.7776 32.9796 31.2056 35.2481 28.1625 36.6942Z" fill="#F4F4F4"/>
</g>
</g>
<defs>
<clipPath id="clip0_601_332">
<rect width="41" height="41" fill="white"/>
</clipPath>
<clipPath id="clip1_601_332">
<rect width="41" height="41" fill="white"/>
</clipPath>
</defs>
</svg>
