<svg width="41" height="41" viewBox="0 0 41 41" fill="none" xmlns="http://www.w3.org/2000/svg">
<g clip-path="url(#clip0_601_331)">
<path fill-rule="evenodd" clip-rule="evenodd" d="M29.6111 0H11.3889C5.09899 0 0 5.09899 0 11.3889V29.6111C0 35.901 5.09899 41 11.3889 41H29.6111C35.901 41 41 35.901 41 29.6111V11.3889C41 5.09899 35.901 0 29.6111 0ZM37.0139 29.6111C37.0014 33.6943 33.6943 37.0014 29.6111 37.0139H11.3889C7.30563 37.0014 3.99862 33.6943 3.98611 29.6111V11.3889C3.99862 7.30563 7.30563 3.99862 11.3889 3.98611H29.6111C33.6943 3.99862 37.0014 7.30563 37.0139 11.3889V29.6111ZM31.3194 11.9583C32.5775 11.9583 33.5972 10.9385 33.5972 9.68056C33.5972 8.42258 32.5775 7.40278 31.3194 7.40278C30.0614 7.40278 29.0417 8.42258 29.0417 9.68056C29.0417 10.9385 30.0614 11.9583 31.3194 11.9583ZM20.5 10.25C14.8391 10.25 10.25 14.8391 10.25 20.5C10.25 26.161 14.8391 30.75 20.5 30.75C26.161 30.75 30.75 26.161 30.75 20.5C30.7561 17.7796 29.6781 15.169 27.7545 13.2455C25.8309 11.3219 23.2203 10.2439 20.5 10.25ZM14.2361 20.5C14.2361 23.9595 17.0405 26.7639 20.5 26.7639C23.9595 26.7639 26.7639 23.9595 26.7639 20.5C26.7639 17.0405 23.9595 14.2361 20.5 14.2361C17.0405 14.2361 14.2361 17.0405 14.2361 20.5Z" fill="#F4F4F4"/>
</g>
<defs>
<clipPath id="clip0_601_331">
<rect width="41" height="41" fill="white"/>
</clipPath>
</defs>
</svg>
