<svg width="457" height="79" viewBox="0 0 457 79" fill="none" xmlns="http://www.w3.org/2000/svg">
<g clip-path="url(#clip0_601_334)">
<path d="M42.0908 0.00500488H36.3357L0 78.9964H6.20646L39.1577 6.32501L72.2218 78.9964H78.4283L42.0908 0.00500488Z" fill="#F4F4F4"/>
<path d="M100.604 0.00524902V78.9966H106.359V0.00524902H100.604Z" fill="#F4F4F4"/>
<path d="M183.359 51.3446C189.227 49.6519 193.854 46.7179 197.013 42.4298C200.173 38.1416 201.865 32.9508 201.865 26.6312C201.865 18.3935 199.044 11.8479 193.402 7.10929C187.76 2.36986 179.974 0 170.044 0H141.72V5.19083H170.044C178.394 5.19083 184.827 7.10914 189.34 10.8331C193.741 14.557 195.998 19.8607 195.998 26.6316C195.998 33.5151 193.741 38.8189 189.34 42.5431C184.826 46.2671 178.394 48.0726 170.044 48.0726H141.72V78.9807H147.475V53.1387H170.044C172.301 53.1387 174.896 53.0259 177.717 52.5745L196.563 78.9798H203.108L183.359 51.3446Z" fill="#128DFF"/>
<path d="M230.886 0.00524902V78.9966H282.118V73.8058H236.638V0.0161077L230.886 0.00524902Z" fill="#F4F4F4"/>
<path d="M333.945 0.00524902H328.19L291.854 78.9966H298.061L331.012 6.32526L364.076 78.9966H370.283L333.945 0.00524902Z" fill="#F4F4F4"/>
<path d="M452.269 44.92C449.335 41.5347 445.047 39.3906 439.405 38.2622C443.354 37.0209 446.627 34.764 448.997 31.6043C451.366 28.5575 452.608 24.8336 452.608 20.207C452.608 13.7749 450.125 8.80971 445.385 5.31211C440.646 1.81395 433.988 0.00842285 425.412 0.00842285H392.46V4.97364H425.186C432.069 4.97364 437.373 6.32778 441.097 9.03603C444.821 11.7443 446.74 15.5811 446.74 20.6591C446.74 25.85 444.821 29.7995 441.097 32.5078C437.373 35.2161 432.07 36.4574 425.186 36.4574H392.46V41.4226H427.668C435.229 41.4226 441.097 42.7767 445.047 45.3721C448.996 48.0804 451.027 52.1428 451.027 57.6723C451.027 63.3145 448.996 67.3769 445.047 70.0852C441.097 72.7935 435.342 74.0348 427.668 74.0348H392.46V79H427.668C437.26 79 444.482 77.1945 449.448 73.5834C454.3 69.9724 456.783 64.8944 456.783 58.1237C456.783 52.82 455.203 48.4182 452.269 44.92Z" fill="#F4F4F4"/>
</g>
<defs>
<clipPath id="clip0_601_334">
<rect width="456.783" height="79" fill="white"/>
</clipPath>
</defs>
</svg>
