<svg width="32" height="34" viewBox="0 0 32 34" fill="none" xmlns="http://www.w3.org/2000/svg">
<g clip-path="url(#clip0_603_339)">
<path fill-rule="evenodd" clip-rule="evenodd" d="M23.1111 0.327148H8.88889C3.9797 0.327148 0 4.43121 0 9.49382V24.1605C0 29.223 3.9797 33.3271 8.88889 33.3271H23.1111C28.0203 33.3271 32 29.223 32 24.1605V9.49382C32 4.43121 28.0203 0.327148 23.1111 0.327148ZM28.8889 24.1605C28.8791 27.4469 26.298 30.1087 23.1111 30.1188H8.88889C5.70196 30.1087 3.12087 27.4469 3.11111 24.1605V9.49382C3.12087 6.20729 5.70196 3.54555 8.88889 3.53548H23.1111C26.298 3.54555 28.8791 6.20729 28.8889 9.49382V24.1605ZM24.4444 9.95215C25.4263 9.95215 26.2222 9.13133 26.2222 8.11882C26.2222 7.1063 25.4263 6.28548 24.4444 6.28548C23.4626 6.28548 22.6667 7.1063 22.6667 8.11882C22.6667 9.13133 23.4626 9.95215 24.4444 9.95215ZM16 8.57715C11.5817 8.57715 8 12.2708 8 16.8271C8 21.3835 11.5817 25.0771 16 25.0771C20.4183 25.0771 24 21.3835 24 16.8271C24.0048 14.6376 23.1634 12.5364 21.662 10.9881C20.1607 9.4399 18.1232 8.57227 16 8.57715ZM11.1111 16.8271C11.1111 19.6116 13.2999 21.8688 16 21.8688C18.7001 21.8688 20.8889 19.6116 20.8889 16.8271C20.8889 14.0427 18.7001 11.7855 16 11.7855C13.2999 11.7855 11.1111 14.0427 11.1111 16.8271Z" fill="#F4F4F4"/>
</g>
<defs>
<clipPath id="clip0_603_339">
<rect width="32" height="33" fill="white" transform="translate(0 0.327148)"/>
</clipPath>
</defs>
</svg>
