<svg width="44" height="45" viewBox="0 0 44 45" fill="none" xmlns="http://www.w3.org/2000/svg">
<g clip-path="url(#clip0_603_353)">
<path d="M38.4498 12.8875C37.5984 14.0233 36.5691 15.014 35.4018 15.8215C35.4018 16.1182 35.4018 16.4149 35.4018 16.7281C35.4112 22.116 33.259 27.2823 29.4279 31.0689C25.5966 34.8554 20.4068 36.9454 15.022 36.8703C11.9089 36.8807 8.83568 36.1699 6.04305 34.7935C5.89246 34.7276 5.79535 34.5788 5.79592 34.4143V34.233C5.79592 33.9963 5.98771 33.8046 6.22428 33.8046C9.28439 33.7035 12.2353 32.6426 14.6596 30.7717C11.8898 30.7158 9.39763 29.0749 8.25072 26.5519C8.1928 26.4142 8.21082 26.256 8.29833 26.1348C8.38582 26.0136 8.53012 25.9469 8.67908 25.9586C9.52089 26.0431 10.3711 25.9649 11.1833 25.7278C8.12567 25.0931 5.82817 22.5547 5.49936 19.4477C5.48768 19.2987 5.55447 19.1544 5.67562 19.0668C5.79675 18.9793 5.95472 18.9612 6.09248 19.0193C6.91301 19.3814 7.79878 19.572 8.69556 19.5795C6.01632 17.8211 4.85907 14.4764 5.87829 11.437C5.98351 11.1417 6.23627 10.9235 6.5437 10.8627C6.85111 10.8018 7.16788 10.9073 7.37754 11.1403C10.993 14.9882 15.9607 17.2812 21.2331 17.5357C21.0982 16.9968 21.0318 16.443 21.0355 15.8874C21.0848 12.9743 22.8873 10.3792 25.5992 9.31703C28.3109 8.25493 31.3953 8.93599 33.4085 11.0414C34.7805 10.78 36.1071 10.3191 37.3459 9.67332C37.4367 9.61667 37.5518 9.61667 37.6425 9.67332C37.6992 9.76411 37.6992 9.87922 37.6425 9.97001C37.0425 11.3441 36.0288 12.4965 34.7429 13.2666C35.869 13.136 36.9752 12.8704 38.038 12.4754C38.1275 12.4145 38.245 12.4145 38.3344 12.4754C38.4094 12.5097 38.4655 12.5753 38.4877 12.6547C38.5099 12.7341 38.496 12.8193 38.4498 12.8875Z" fill="#F4F4F4"/>
</g>
<defs>
<clipPath id="clip0_603_353">
<rect width="44" height="44" fill="white" transform="translate(0 0.572266)"/>
</clipPath>
</defs>
</svg>
