<svg width="32" height="30" viewBox="0 0 32 30" fill="none" xmlns="http://www.w3.org/2000/svg">
<g clip-path="url(#clip0_603_341)">
<path d="M31.9532 4.53008C31.1276 5.70433 30.1295 6.72864 28.9976 7.56344C28.9976 7.87018 28.9976 8.17692 28.9976 8.50071C29.0067 14.0711 26.9198 19.4124 23.2047 23.3272C19.4895 27.242 14.457 29.4028 9.23539 29.3251C6.21662 29.3359 3.23649 28.6011 0.528492 27.178C0.382465 27.1099 0.288296 26.956 0.288847 26.786V26.5985C0.288847 26.3538 0.474821 26.1556 0.704225 26.1556C3.6716 26.0511 6.53312 24.9543 8.88391 23.02C6.19802 22.9622 3.78142 21.2658 2.66926 18.6573C2.6131 18.5149 2.63057 18.3514 2.71543 18.2261C2.80026 18.1008 2.94019 18.0318 3.08464 18.0439C3.90094 18.1313 4.7254 18.0504 5.51299 17.8053C2.548 17.1491 0.320118 14.5247 0.00127388 11.3125C-0.0100506 11.1584 0.0547138 11.0092 0.172189 10.9186C0.289647 10.8282 0.442838 10.8094 0.576421 10.8695C1.37208 11.2439 2.23102 11.441 3.10062 11.4488C0.502571 9.63079 -0.619616 6.17275 0.368723 3.03045C0.470749 2.72512 0.715852 2.49954 1.01397 2.43665C1.31207 2.37374 1.61923 2.48279 1.82254 2.72371C5.32844 6.70195 10.1456 9.07258 15.2582 9.33573C15.1274 8.77858 15.063 8.20599 15.0666 7.6316C15.1144 4.61977 16.8623 1.93677 19.492 0.838671C22.1215 -0.259408 25.1125 0.444726 27.0646 2.62145C28.3951 2.35119 29.6815 1.87467 30.8828 1.20703C30.9708 1.14846 31.0824 1.14846 31.1704 1.20703C31.2254 1.30089 31.2254 1.4199 31.1704 1.51377C30.5886 2.93435 29.6056 4.12582 28.3587 4.92203C29.4506 4.78702 30.5233 4.51239 31.5539 4.10406C31.6406 4.04109 31.7546 4.04109 31.8414 4.10406C31.9141 4.1395 31.9685 4.2073 31.99 4.28939C32.0115 4.37148 31.998 4.45953 31.9532 4.53008Z" fill="#F4F4F4"/>
</g>
<defs>
<clipPath id="clip0_603_341">
<rect width="32" height="29" fill="white" transform="translate(0 0.327148)"/>
</clipPath>
</defs>
</svg>
