<svg width="32" height="34" viewBox="0 0 32 34" fill="none" xmlns="http://www.w3.org/2000/svg">
<g clip-path="url(#clip0_603_340)">
<g clip-path="url(#clip1_603_340)">
<path d="M16 0.327148C7.16343 0.327148 0 7.71443 0 16.8271C0 25.9399 7.16343 33.3271 16 33.3271C24.8366 33.3271 32 25.9399 32 16.8271C32 7.71443 24.8366 0.327148 16 0.327148ZM2.05068 17.8584H5.48199C5.55833 19.5706 5.80924 21.1371 6.19892 22.5439H3.14984C2.5393 21.0901 2.16477 19.5115 2.05068 17.8584ZM20.9358 15.7959C20.8606 14.1383 20.67 12.5682 20.4121 11.1105H23.6899C24.1262 12.494 24.4257 14.0542 24.516 15.7959H20.9358ZM13.4779 22.5439C13.1956 20.9368 13.0571 19.3681 13.0314 17.8584H18.9686C18.943 19.3681 18.8044 20.9368 18.5221 22.5439H13.4779ZM18.0864 24.6064C17.6175 26.4627 16.9388 28.3549 15.9998 30.2513C15.061 28.3549 14.3824 26.4627 13.9135 24.6064H18.0864ZM13.0587 15.7959C13.1379 14.1288 13.3423 12.5579 13.6137 11.1105H18.3863C18.6578 12.5579 18.8621 14.1288 18.9414 15.7959H13.0587ZM14.0632 9.04804C14.6881 6.53202 15.4603 4.54691 15.9999 3.32469C16.5395 4.54691 17.3117 6.53202 17.9368 9.04804H14.0632ZM19.9882 9.04804C19.3502 6.32136 18.5309 4.13104 17.9228 2.71541C18.6786 3.27001 21.1896 5.31991 22.9024 9.04804H19.9882ZM14.0769 2.71527C13.4688 4.1309 12.6497 6.3213 12.0117 9.04804H9.09721C10.8103 5.31958 13.3214 3.26967 14.0769 2.71527ZM11.5879 11.1105C11.33 12.5683 11.1395 14.1384 11.0642 15.796H7.48362C7.57394 14.0543 7.87337 12.4941 8.30975 11.1105H11.5879ZM5.48415 15.7959H2.05068C2.16477 14.1429 2.53923 12.5644 3.14978 11.1105H6.21277C5.82021 12.5171 5.56434 14.0825 5.48415 15.7959ZM7.48258 17.8584H11.0368C11.0595 19.3706 11.1829 20.9373 11.4444 22.5439H8.31079C7.87076 21.1567 7.57029 19.5961 7.48258 17.8584ZM11.8585 24.6064C12.3491 26.7065 13.0778 28.8529 14.1275 31.0079C13.4192 30.4849 10.8441 28.3961 9.09812 24.6064H11.8585ZM17.87 31.0126C18.9211 28.856 19.6504 26.708 20.1415 24.6064H22.9219C21.1811 28.4154 18.595 30.4869 17.87 31.0126ZM20.5557 22.5439C20.8172 20.9373 20.9406 19.3706 20.9633 17.8584H24.5181C24.4321 19.5993 24.1365 21.1595 23.7029 22.5439H20.5557ZM26.5176 17.8584H29.9493C29.8352 19.5115 29.4607 21.0901 28.8502 22.5439H25.8008C26.1904 21.1371 26.4413 19.5706 26.5176 17.8584ZM26.5155 15.7959C26.4353 14.0824 26.1795 12.5171 25.7869 11.1105H28.8503C29.4609 12.5643 29.8353 14.1428 29.9494 15.7959H26.5155ZM27.7753 9.04804H25.0819C24.1879 6.82734 23.0225 5.07066 21.9257 3.76561C24.3249 4.92802 26.3522 6.76525 27.7753 9.04804ZM10.0736 3.76588C8.97698 5.07093 7.81166 6.82754 6.91775 9.04804H4.22472C5.64767 6.76538 7.67478 4.92836 10.0736 3.76588ZM4.22478 24.6064H6.90149C7.78194 26.8044 8.93094 28.5552 10.02 29.8617C7.64467 28.6979 5.63709 26.8718 4.22478 24.6064ZM21.9805 29.8615C23.0693 28.5551 24.2181 26.8043 25.0983 24.6064H27.7752C26.363 26.8717 24.3556 28.6976 21.9805 29.8615Z" fill="#F4F4F4"/>
</g>
</g>
<defs>
<clipPath id="clip0_603_340">
<rect width="32" height="33" fill="white" transform="translate(0 0.327148)"/>
</clipPath>
<clipPath id="clip1_603_340">
<rect width="32" height="33" fill="white" transform="translate(0 0.327148)"/>
</clipPath>
</defs>
</svg>
