<svg width="198" height="35" viewBox="0 0 198 35" fill="none" xmlns="http://www.w3.org/2000/svg">
<g clip-path="url(#clip0_603_342)">
<path d="M18.2449 0.330078H15.7503L0 34.5702H2.6903L16.9735 3.06959L31.3057 34.5702H33.996L18.2449 0.330078Z" fill="#F4F4F4"/>
<path d="M43.6084 0.330078V34.5702H46.103V0.330078H43.6084Z" fill="#F4F4F4"/>
<path d="M79.4799 22.5843C82.0234 21.8506 84.0289 20.5788 85.3985 18.72C86.7681 16.8612 87.5019 14.6112 87.5019 11.8719C87.5019 8.30108 86.279 5.46378 83.8333 3.40976C81.3875 1.35538 78.0124 0.328125 73.7082 0.328125H61.4307V2.57818H73.7082C77.3279 2.57818 80.1163 3.4097 82.0724 5.0239C83.9801 6.63811 84.9584 8.93706 84.9584 11.872C84.9584 14.8558 83.9801 17.1548 82.0724 18.7691C80.1158 20.3834 77.3277 21.166 73.7082 21.166H61.4307V34.5636H63.9253V23.362H73.7082C74.6865 23.362 75.8115 23.3131 77.0344 23.1174L85.2033 34.5632H88.0404L79.4799 22.5843Z" fill="#128DFF"/>
<path d="M100.081 0.330078V34.5702H122.288V32.3202H102.575V0.334785L100.081 0.330078Z" fill="#F4F4F4"/>
<path d="M144.754 0.330078H142.259L126.509 34.5702H129.199L143.482 3.06959L157.815 34.5702H160.505L144.754 0.330078Z" fill="#F4F4F4"/>
<path d="M196.044 19.7997C194.772 18.3323 192.914 17.4029 190.468 16.9137C192.18 16.3757 193.598 15.3974 194.626 14.0278C195.653 12.7071 196.191 11.0929 196.191 9.08743C196.191 6.29933 195.115 4.14709 193.06 2.631C191.006 1.11467 188.12 0.332031 184.402 0.332031H170.119V2.48429H184.304C187.288 2.48429 189.587 3.07126 191.202 4.2452C192.816 5.41916 193.647 7.08227 193.647 9.28342C193.647 11.5335 192.816 13.2455 191.202 14.4194C189.587 15.5934 187.288 16.1314 184.304 16.1314H170.119V18.2837H185.38C188.658 18.2837 191.201 18.8707 192.913 19.9957C194.625 21.1696 195.506 22.9306 195.506 25.3274C195.506 27.7731 194.625 29.534 192.913 30.708C191.201 31.8819 188.707 32.42 185.38 32.42H170.119V34.5722H185.38C189.538 34.5722 192.669 33.7896 194.821 32.2243C196.925 30.6591 198.001 28.4579 198.001 25.5231C198.001 23.2241 197.316 21.3161 196.044 19.7997Z" fill="#F4F4F4"/>
</g>
<defs>
<clipPath id="clip0_603_342">
<rect width="198" height="34.2441" fill="white" transform="translate(0 0.328125)"/>
</clipPath>
</defs>
</svg>
