<svg width="31" height="30" viewBox="0 0 31 30" fill="none" xmlns="http://www.w3.org/2000/svg">
<g clip-path="url(#clip0_603_337)">
<path d="M30.9546 4.34941C30.1548 5.52367 29.188 6.54798 28.0914 7.38278C28.0914 7.68952 28.0914 7.99625 28.0914 8.32005C28.1002 13.8904 26.0785 19.2317 22.4796 23.1466C18.8805 27.0614 14.0052 29.2222 8.94679 29.1445C6.02235 29.1553 3.13535 28.4204 0.511977 26.9973C0.370513 26.9293 0.279287 26.7754 0.279821 26.6053V26.4179C0.279821 26.1732 0.459983 25.9749 0.682218 25.9749C3.55687 25.8705 6.32896 24.7736 8.60629 22.8393C6.00433 22.7815 3.66325 21.0851 2.58584 18.4766C2.53144 18.3343 2.54837 18.1707 2.63057 18.0454C2.71275 17.9201 2.84831 17.8511 2.98824 17.8632C3.77903 17.9506 4.57773 17.8697 5.34071 17.6246C2.46837 16.9684 0.310115 14.344 0.00123408 11.1318C-0.00973648 10.9777 0.0530039 10.8286 0.166808 10.738C0.280596 10.6475 0.429 10.6288 0.558408 10.6889C1.32921 11.0632 2.1613 11.2603 3.00372 11.2681C0.486866 9.45012 -0.600253 5.99208 0.3572 2.84979C0.456038 2.54445 0.693481 2.31888 0.982281 2.25599C1.27106 2.19308 1.56863 2.30212 1.76558 2.54305C5.16193 6.52129 9.82855 8.89192 14.7814 9.15506C14.6547 8.59792 14.5923 8.02533 14.5958 7.45094C14.6421 4.4391 16.3354 1.7561 18.8829 0.658007C21.4302 -0.440072 24.3277 0.264062 26.2189 2.44079C27.5078 2.17052 28.754 1.69401 29.9177 1.02636C30.0029 0.967796 30.1111 0.967796 30.1963 1.02636C30.2496 1.12023 30.2496 1.23924 30.1963 1.3331C29.6327 2.75369 28.6804 3.94515 27.4725 4.74137C28.5303 4.60636 29.5695 4.33173 30.5678 3.92339C30.6519 3.86043 30.7623 3.86043 30.8463 3.92339C30.9168 3.95884 30.9695 4.02664 30.9903 4.10873C31.0111 4.19082 30.998 4.27886 30.9546 4.34941Z" fill="#F4F4F4"/>
</g>
<defs>
<clipPath id="clip0_603_337">
<rect width="31" height="29" fill="white" transform="translate(0 0.146484)"/>
</clipPath>
</defs>
</svg>
