<svg xmlns="http://www.w3.org/2000/svg" width="139" height="25" fill="none" viewBox="0 0 139 25">
  <path fill="#F4F4F4" d="M12.787.502H11.04L0 24.499h1.886l10.01-22.077 10.045 22.077h1.885L12.787.502Zm17.776 0v23.997h1.748V.502h-1.748Z"/>
  <path fill="#128DFF" d="M55.704 16.098c1.782-.514 3.188-1.405 4.148-2.708.96-1.303 1.474-2.88 1.474-4.8 0-2.502-.857-4.49-2.571-5.93C57.04 1.22 54.675.5 51.659.5h-8.605v1.577h8.605c2.537 0 4.49.583 5.862 1.714 1.337 1.131 2.023 2.743 2.023 4.8 0 2.09-.686 3.702-2.023 4.834-1.371 1.13-3.325 1.68-5.862 1.68h-8.605v9.39h1.748v-7.852h6.857c.685 0 1.474-.034 2.33-.171l5.726 8.022h1.988l-6-8.396Z"/>
  <path fill="#F4F4F4" d="M70.143.502v23.997h15.564v-1.577H71.89V.505L70.143.502Zm31.309 0h-1.748l-11.04 23.997h1.886l10.011-22.077 10.045 22.077h1.885L101.452.502Zm35.946 13.644c-.891-1.028-2.194-1.68-3.908-2.022 1.2-.377 2.194-1.063 2.914-2.023.72-.925 1.097-2.057 1.097-3.462 0-1.954-.754-3.463-2.194-4.525-1.44-1.063-3.463-1.612-6.068-1.612h-10.011v1.509h9.942c2.091 0 3.703.411 4.834 1.234 1.131.823 1.714 1.988 1.714 3.531 0 1.577-.583 2.777-1.714 3.6-1.131.822-2.743 1.2-4.834 1.2h-9.942v1.508h10.696c2.297 0 4.08.411 5.28 1.2 1.2.823 1.817 2.057 1.817 3.737 0 1.714-.617 2.948-1.817 3.77-1.2.823-2.948 1.2-5.28 1.2h-10.696V24.5h10.696c2.914 0 5.108-.549 6.617-1.646 1.474-1.097 2.228-2.64 2.228-4.696 0-1.611-.48-2.949-1.371-4.012Z"/>
</svg>
