<svg width="44" height="44" viewBox="0 0 44 44" fill="none" xmlns="http://www.w3.org/2000/svg">
<g clip-path="url(#clip0_411_336)">
<path d="M38.4502 12.3152C37.5988 13.451 36.5696 14.4418 35.4023 15.2492C35.4023 15.5459 35.4023 15.8426 35.4023 16.1558C35.4117 21.5437 33.2595 26.71 29.4284 30.4966C25.5971 34.2832 20.4073 36.3732 15.0225 36.298C11.9094 36.3084 8.83617 35.5977 6.04354 34.2212C5.89295 34.1554 5.79584 34.0065 5.79641 33.8421V33.6607C5.79641 33.4241 5.98819 33.2323 6.22477 33.2323C9.28488 33.1313 12.2358 32.0703 14.6601 30.1994C11.8902 30.1435 9.39812 28.5027 8.25121 25.9796C8.19329 25.8419 8.21131 25.6837 8.29882 25.5625C8.3863 25.4414 8.53061 25.3746 8.67956 25.3864C9.52138 25.4709 10.3716 25.3926 11.1838 25.1555C8.12615 24.5208 5.82866 21.9824 5.49985 18.8755C5.48817 18.7264 5.55496 18.5821 5.67611 18.4945C5.79723 18.407 5.95521 18.3889 6.09297 18.447C6.9135 18.8091 7.79927 18.9998 8.69605 19.0073C6.01681 17.2488 4.85956 13.9041 5.87878 10.8647C5.984 10.5694 6.23676 10.3512 6.54419 10.2904C6.8516 10.2295 7.16837 10.335 7.37803 10.5681C10.9935 14.416 15.9612 16.7089 21.2336 16.9635C21.0987 16.4246 21.0323 15.8707 21.036 15.3152C21.0853 12.402 22.8878 9.80689 25.5997 8.74476C28.3114 7.68266 31.3958 8.36373 33.4089 10.4691C34.781 10.2077 36.1076 9.74683 37.3464 9.10106C37.4371 9.04441 37.5523 9.04441 37.643 9.10106C37.6997 9.19184 37.6997 9.30696 37.643 9.39774C37.043 10.7718 36.0293 11.9242 34.7434 12.6944C35.8695 12.5638 36.9757 12.2981 38.0385 11.9032C38.1279 11.8423 38.2455 11.8423 38.3349 11.9032C38.4099 11.9375 38.466 12.003 38.4882 12.0824C38.5104 12.1618 38.4964 12.247 38.4502 12.3152Z" fill="#F4F4F4"/>
</g>
<defs>
<clipPath id="clip0_411_336">
<rect width="44" height="44" fill="white"/>
</clipPath>
</defs>
</svg>
